<svg xmlns="http://www.w3.org/2000/svg" height="249.03" viewBox="0 0 212 249.03288" width="212"><g transform="matrix(1.25 0 0 -1.25 -586.37 981.96)"><g><path d="m637.46 768.02h-1.911c-52.155 0-80.449 15.93-80.729 16.088l-1.0046 0.58159-0.99703-0.58159c-0.28702-0.15862-28.574-16.088-80.729-16.088h-1.911l-0.0831-1.911c-0.14351-2.9306-3.1572-72.277 14.668-110.84 10.303-22.289 28.596-53.59 68.372-67.964l0.68734-0.2417 0.67223 0.2417c39.79 14.374 58.077 45.674 68.379 67.964 17.81 38.567 14.812 107.9 14.676 110.84l-0.0906 1.911z" fill="#602d89"/><path d="m619.23 656.94c-9.9324-21.512-27.509-51.649-65.411-65.622-37.902 13.973-55.486 44.111-65.426 65.622-15.794 34.193-14.729 95.51-14.374 107.07 47.253 0.34745 74.316 13.195 79.8 16.073 5.4761-2.8778 32.539-15.726 79.792-16.073 0.36255-11.556 1.4276-72.873-14.381-107.07" fill="#fff"/><path d="m553.82 775.17c-5.1739-2.7192-30.719-14.85-75.305-15.167-0.33989-10.914-1.352-68.787 13.566-101.06 9.3735-20.295 25.975-48.741 61.74-61.936 35.772 13.195 52.359 41.641 61.732 61.936 14.918 32.282 13.913 90.147 13.573 101.06-44.594 0.31723-70.139 12.448-75.305 15.167" fill="#602d89"/><path d="m545.27 683.99h16.609c0.40788-4.5999 1.0348-9.3433 1.8883-14.124-3.3158-0.75532-6.7526-1.133-10.242-1.133-3.4896 0-6.9263 0.37766-10.242 1.1254 0.88372 4.8038 1.556 9.5472 1.9865 14.132m-22.954-1.5937c-3.2252 4.1996-4.9776 9.0185-4.9776 13.853 0 4.8189 1.7372 9.6228 4.9398 13.807 0.63447-4.8038 0.9517-9.3886 0.9517-13.686 0-4.396-0.30213-9.0789-0.91394-13.973m20.847 40.213c3.3536 0.76287 6.8356 1.1556 10.363 1.1556 3.4745 0 6.9036-0.37766 10.219-1.1254-0.83085-4.751-1.4578-9.4868-1.8581-14.132h-16.632c-0.45319 4.547-1.1556 9.2829-2.0922 14.102m29.14 31.489-0.49851-1.3671-0.355-0.98192c-0.88372-2.4472-1.7372-5.0153-2.5379-7.6514-5.0153 1.1632-10.182 1.7523-15.386 1.7523-5.3854 0-10.718-0.62692-15.877-1.8656-0.83085 2.5908-1.6995 5.1362-2.6058 7.5758l-0.36256 0.98192-0.49851 1.3747-1.4049-0.42298-1.0046-0.29457c-5.8764-1.7599-11.42-4.2524-16.481-7.4021l-0.77042-0.47585-1.0574-0.66468 0.41543-1.1783 0.30212-0.85351c0.92149-2.553 1.7901-5.189 2.5983-7.8402-1.2916-0.89128-2.5077-1.7977-3.6331-2.7192-11.534-9.4188-17.886-22.138-17.886-35.817s6.3522-26.398 17.886-35.817c1.2387-1.0046 2.5605-1.9865 3.9428-2.9231-0.76287-2.6512-1.6013-5.325-2.485-7.9535l-0.28702-0.84596-0.39277-1.1783 1.0574-0.64957 0.76287-0.46075c5.0833-3.1044 10.658-5.5516 16.564-7.2737l1.0197-0.29458 1.4124-0.40787 0.4834 1.3898 0.34745 1.0046c0.85351 2.4548 1.6844 5.0002 2.4623 7.5834 5.0531-1.1783 10.25-1.775 15.492-1.775 5.2117 0 10.393 0.58915 15.424 1.7599 0.79309-2.6058 1.639-5.1664 2.5152-7.6363l0.355-0.98947 0.4834-1.3747 1.4049 0.40032 1.0121 0.28702c5.8915 1.6919 11.466 4.1014 16.572 7.1604l0.77798 0.4683 1.0801 0.64958-0.40788 1.1858-0.29457 0.86106c-0.90638 2.6134-1.7599 5.3099-2.5454 8.0442 1.4049 0.9517 2.7494 1.9487 4.0032 2.9684 5.0984 4.1618 9.2149 9.0034 12.229 14.366l0.52872 0.94415 0.74777 1.3218-1.2992 0.77798-0.9366 0.55894-14.381 8.5955-1.0046 0.60426-1.3973 0.83085-0.77043-1.4351-0.55138-1.0272c-0.64958-1.2085-1.4049-2.3793-2.2735-3.5047-0.54383 4.7132-0.81574 9.2904-0.81574 13.641 0 4.4715 0.27191 9.1394 0.81574 13.928 0.78554-1.0197 1.4804-2.0696 2.0771-3.1497l0.55139-0.98947 0.77042-1.3822 1.3671 0.78553 0.98192 0.57404 14.51 8.3614 0.95926 0.55138 1.3369 0.77043-0.75532 1.3445-0.55138 0.95925c-3.0062 5.3023-7.0849 10.084-12.138 14.208-1.2614 1.0272-2.6134 2.0318-4.041 2.9986 0.80064 2.772 1.6617 5.4685 2.553 8.0215l0.30213 0.85351 0.42297 1.201-1.0952 0.64957-0.77798 0.4683c-5.106 3.0515-10.68 5.461-16.572 7.1453l-1.0046 0.29458-1.3898 0.40032zm-18.777-86.922c4.1165 0 8.1574 0.51362 12.032 1.5258-1.065 5.7178-1.8203 11.368-2.2433 16.844h-19.465c-0.46075-5.4232-1.2538-11.073-2.3642-16.844 3.8672-1.0121 7.9158-1.5258 12.04-1.5258m-30.137 11.624c0.92904 6.1785 1.3973 12.085 1.3973 17.569 0 5.3703-0.49096 11.171-1.4578 17.267-4.8794-5.0153-7.5381-11.118-7.5381-17.387 0-6.2918 2.6814-12.425 7.5985-17.448m20.446 28.151h19.487c0.42298 5.5063 1.1632 11.164 2.2131 16.851-3.8672 1.0046-7.9082 1.5106-12.01 1.5106-4.1694 0-8.2556-0.52117-12.176-1.5484 1.1783-5.7706 2.0092-11.42 2.485-16.813m29.435 45.251 1.0046-0.28703c5.7555-1.6541 11.209-4.0032 16.194-6.9942l0.78554-0.4683-0.30213-0.85351c-1.0348-2.9533-2.0016-6.0426-2.8929-9.2074 1.7372-1.1254 3.3687-2.3113 4.8643-3.5273 4.902-4.0032 8.8599-8.6333 11.768-13.769l0.54383-0.96681-0.95926-0.55138-14.51-8.3614-0.98192-0.56649-0.55138 0.98947c-1.1858 2.1376-2.7116 4.1618-4.5395 6.0274-0.83841-6.035-1.2689-11.942-1.2689-17.561 0-5.4836 0.43053-11.284 1.2765-17.267 1.9261 1.9714 3.5198 4.1165 4.7358 6.39l0.55139 1.0348 1.0046-0.5967 14.389-8.6031 0.92904-0.55894-0.52872-0.94414c-2.9155-5.1966-6.9112-9.8796-11.859-13.928-1.488-1.2085-3.1044-2.3868-4.8265-3.5047 0.88372-3.1346 1.8505-6.2389 2.8778-9.2149l0.29457-0.86107-0.77798-0.46074c-4.9851-2.9911-10.431-5.3477-16.202-7.0018l-1.0121-0.28702-0.34744 0.98946c-1.0272 2.8853-2.0092 5.899-2.9155 8.9732-5.3477-1.3671-10.892-2.062-16.489-2.062-5.6196 0-11.186 0.70244-16.557 2.0771-0.89128-3.0137-1.8505-6.0199-2.8627-8.9279l-0.34745-1.0046-1.0197 0.29458c-5.7782 1.6844-11.224 4.0712-16.186 7.1076l-0.76288 0.46075 0.28702 0.84596c1.0046 2.9986 1.9563 6.0577 2.8174 9.1167-1.6995 1.1103-3.3008 2.2735-4.7585 3.4594-11.171 9.1242-17.319 21.413-17.319 34.616s6.1483 25.492 17.319 34.616c1.3596 1.1103 2.8627 2.2131 4.4639 3.2705-0.90638 3.059-1.9034 6.0879-2.9533 9.0185l-0.30213 0.84596 0.76288 0.47585c4.9549 3.0817 10.378 5.5138 16.111 7.2284l1.0046 0.30212 0.36255-0.98191c1.0574-2.8702 2.0771-5.8613 3.0213-8.9052 5.4761 1.4427 11.164 2.1753 16.919 2.1753 5.5818 0 11.111-0.68734 16.443-2.0545 0.92149 3.1044 1.911 6.1181 2.9458 8.9808l0.355 0.98192"/><path d="m566.97 667.45c-4.3204-1.2312-8.8448-1.8505-13.452-1.8505-4.6226 0-9.1469 0.61936-13.46 1.8505l-0.41543 0.12085 0.0831 0.42298c1.2765 6.4278 2.1602 12.72 2.621 18.709l0.0302 0.43053h22.403l0.0302-0.43053c0.43053-6.0728 1.2689-12.372 2.4926-18.709l0.0831-0.42298-0.41543-0.12085zm-27.479 57.442 0.42298 0.12841c4.3582 1.2538 8.9354 1.8883 13.603 1.8883 4.5999 0 9.1167-0.61936 13.422-1.843l0.41542-0.12085-0.0755-0.42298c-1.2085-6.322-2.0318-12.621-2.4623-18.709l-0.0302-0.43808h-22.418l-0.0302 0.43053c-0.4834 5.9444-1.4049 12.221-2.7569 18.664l-0.0906 0.42298zm-14.872-48.446-0.14351-0.84595-0.63447 0.57404c-6.2163 5.5743-9.6454 12.712-9.6454 20.084 0 7.3342 3.3989 14.442 9.5624 20.008l0.63446 0.57405 0.14352-0.84596c1.2161-6.9565 1.8354-13.558 1.8354-19.616 0-6.1936-0.58915-12.901-1.7523-19.933m78.546-0.49851-13.573 8.1121c-1.5862-2.8476-3.7313-5.4912-6.3674-7.8704l-0.64202-0.57405-0.13596 0.85351c-1.0726 6.813-1.6088 13.422-1.6088 19.638 0 6.3673 0.53628 13.075 1.5937 19.94l0.1284 0.86106 0.64958-0.58159c2.5303-2.266 4.5999-4.7887 6.171-7.5003l13.694 7.9006c-2.7871 4.7963-6.5411 9.1394-11.164 12.916-1.6466 1.3369-3.4594 2.6361-5.4081 3.8597l-0.29457 0.18883 0.0982 0.3399c0.92149 3.3385 1.9336 6.609 3.0137 9.7285-4.6528 2.7494-9.721 4.9398-15.069 6.5108-1.0726-2.9986-2.1073-6.1936-3.0742-9.5095l-0.12841-0.44564-0.44563 0.12841c-5.5214 1.5031-11.269 2.266-17.085 2.266-5.9821 0-11.881-0.80064-17.539-2.3944l-0.43808-0.12085-0.13596 0.43809c-0.97436 3.195-2.0394 6.3598-3.1572 9.4339-5.325-1.6315-10.363-3.8974-14.986-6.7374 1.1028-3.0893 2.1376-6.2994 3.0893-9.5397l0.0982-0.33989-0.29458-0.18883c-1.8052-1.1556-3.4971-2.3793-5.0229-3.6255-10.794-8.807-16.738-20.666-16.738-33.378 0-12.72 5.9444-24.578 16.738-33.385 1.6013-1.3142 3.3914-2.5983 5.3023-3.8068l0.29458-0.18127-0.0906-0.3399c-0.89883-3.2479-1.8883-6.4882-2.9458-9.6303 4.6452-2.7947 9.6983-5.0229 15.054-6.6166 1.0574 3.059 2.062 6.2465 3.0062 9.4793l0.1284 0.44564 0.44564-0.12085c5.5592-1.5333 11.345-2.3037 17.191-2.3037 5.8235 0 11.587 0.77042 17.131 2.2811l0.44563 0.12085 0.12841-0.43808c0.94415-3.2479 1.9638-6.4429 3.0439-9.517 5.3552 1.5711 10.423 3.7615 15.076 6.5184-1.0877 3.1723-2.0922 6.4504-2.9986 9.7436l-0.0982 0.33234 0.29458 0.18883c1.9412 1.2236 3.7464 2.5152 5.3703 3.8446 4.6679 3.8144 8.452 8.2103 11.254 13.075" fill="#fff"/></g></g></svg>
